<svg width="37" height="36" viewBox="0 0 37 36" fill="none" xmlns="http://www.w3.org/2000/svg">
<path d="M17.6171 15.2221L14.1179 18.3862C13.6993 18.7645 13.6826 19.417 14.0825 19.8159L16.1854 21.9188C16.5843 22.3177 17.2368 22.302 17.6151 21.8834L20.7792 18.3842L23.1581 15.7537L20.2475 12.8432L17.6171 15.2221Z" fill="#3D3D3D"/>
<path d="M30.1284 8.04699L30.041 7.96052L28.0413 5.95988L27.9539 5.87341L23.248 10.1292L25.8726 12.7528L30.1284 8.04699Z" fill="#3D3D3D"/>
<path d="M24.1091 14.7023L24.6054 14.154L21.8471 11.3958L21.2988 11.893L24.1091 14.7023Z" fill="#3D3D3D"/>
<path d="M8.72124 30.8646C9.07794 30.5521 9.09563 30.0038 8.76055 29.6688L6.33248 27.2407C5.9974 26.9056 5.44909 26.9233 5.13662 27.28L2.07278 30.7723C2.04527 30.8037 2.03446 30.842 2.01186 30.8754C1.80649 31.1948 1.83302 31.6163 2.10914 31.8925L4.10879 33.8921C4.38491 34.1682 4.80645 34.1947 5.12581 33.9894C5.1602 33.9678 5.19754 33.956 5.22898 33.9285L8.72124 30.8646Z" fill="#3D3D3D"/>
<path d="M9.03306 23.9783C8.77659 23.7218 8.35995 23.7218 8.10251 23.9783C7.84604 24.2347 7.84604 24.6514 8.10251 24.9088L11.0897 27.896C11.3462 28.1525 11.7628 28.1525 12.0202 27.896C12.2767 27.6395 12.2767 27.2229 12.0202 26.9655L9.03306 23.9783Z" fill="#FFAA00"/>
<path d="M24.1069 14.7023L21.2966 11.8929L11.3662 1.96249L9.78711 2.38601L20.2452 12.8431L23.1558 15.7547L29.8524 22.4513L30.8537 21.45L24.1069 14.7023Z" fill="#FFAA00"/>
<path d="M16.1835 21.9187L14.0807 19.8159C13.6817 19.4169 13.6974 18.7645 14.116 18.3861L17.6152 15.2221C15.1262 13.7717 12.1714 13.7029 9.99488 15.1386C9.62738 15.3813 9.47114 15.8333 9.59201 16.2568C9.91628 17.3868 9.64212 18.6495 8.75186 19.5397C7.68964 20.602 5.23012 19.9407 4.33888 19.6537C4.11189 19.581 3.87508 19.5918 3.65595 19.6871C3.17348 19.8964 2.32449 20.2993 1.93046 20.6934C-0.841537 23.4663 -0.462242 27.4646 2.01103 30.8753C2.03265 30.8419 2.04444 30.8036 2.07196 30.7722L5.13579 27.2799C5.44827 26.9232 5.99657 26.9055 6.33165 27.2406L8.75972 29.6687C9.0948 30.0038 9.07711 30.5521 8.72042 30.8645L5.22816 33.9284C5.19671 33.9559 5.15839 33.9667 5.12498 33.9893C8.53568 36.4616 12.535 36.8419 15.307 34.0699C15.702 33.6749 16.1039 32.8259 16.3132 32.3444C16.4085 32.1252 16.4193 31.8884 16.3466 31.6614C16.0587 30.7702 15.3984 28.3107 16.4606 27.2485C17.3508 26.3582 18.6135 26.084 19.7435 26.4083C20.1661 26.5292 20.6191 26.3729 20.8618 26.0054C22.2974 23.8289 22.2286 20.8732 20.7782 18.3852L17.6142 21.8843C17.2359 22.3029 16.5834 22.3196 16.1845 21.9197L16.1835 21.9187ZM12.022 27.896C11.7656 28.1525 11.3489 28.1525 11.0915 27.896L8.10431 24.9088C7.84784 24.6524 7.84784 24.2357 8.10431 23.9783C8.36077 23.7218 8.77741 23.7218 9.03486 23.9783L12.022 26.9655C12.2785 27.2219 12.2785 27.6386 12.022 27.896Z" fill="#F77F00"/>
<path d="M31.1587 7.99685L34.651 4.93204C35.0067 4.61956 35.0254 4.07125 34.6903 3.73618L32.2622 1.3081C31.9272 0.973027 31.3788 0.990714 31.0664 1.34741L28.0025 4.83967C27.7176 5.16492 27.7333 5.65427 28.0389 5.95986L30.0385 7.95951C30.3441 8.26511 30.8345 8.28181 31.1587 7.99685Z" fill="#F77F00"/>
<path d="M36.0399 24.2564C35.8532 24.4333 35.6075 24.5315 35.3717 24.5315C35.126 24.5315 34.8902 24.4333 34.7035 24.2564L32.7088 22.2617L30.832 24.1483C30.6453 24.3252 30.3996 24.4234 30.1638 24.4234C29.9181 24.4234 29.6823 24.3252 29.4956 24.1483C29.132 23.7749 29.132 23.1755 29.4956 22.8119L29.8493 22.4484L31.3724 20.9253L24.6021 14.155L21.8507 11.3938L12.7123 2.25535C12.388 1.9409 11.9262 1.81316 11.484 1.93108L11.3661 1.96056L9.78406 2.38309L9.20431 2.54031C8.70317 2.67788 8.18238 2.38309 8.04481 1.87212C7.90724 1.37098 8.21186 0.850187 8.713 0.722445L10.9927 0.10339C12.0834 -0.181572 13.2527 0.132869 14.0388 0.918971L36.0399 22.92C36.4035 23.2836 36.4035 23.883 36.0399 24.2564Z" fill="#F77F00"/>
</svg>
