<svg width="29" height="32" viewBox="0 0 29 32" fill="none" xmlns="http://www.w3.org/2000/svg">
<path d="M19.5584 12.8257C18.9334 12.8257 18.4267 12.319 18.4267 11.6939V6.35784C18.4267 4.09986 16.5903 2.2626 14.3314 2.2626C12.0725 2.2626 10.2362 4.09986 10.2362 6.35784V11.6939C10.2362 12.319 9.72948 12.8257 9.10442 12.8257C8.47936 12.8257 7.97266 12.319 7.97266 11.6939V6.35784C7.97266 2.85159 10.8252 0 14.3305 0C17.8358 0 20.6883 2.85159 20.6883 6.35784V11.6939C20.6883 12.319 20.1816 12.8257 19.5566 12.8257H19.5584Z" fill="#4E5968"/>
<path d="M24.1631 6.35782H4.50153C3.75719 6.35782 3.12474 6.90058 3.01101 7.63567L0.0540028 26.7841C-0.369483 29.5256 1.75164 32 4.52557 32H24.1372C26.9111 32 29.0323 29.5266 28.6088 26.7841L25.6518 7.63567C25.5381 6.90058 24.9056 6.35782 24.1613 6.35782H24.1631Z" fill="#EF4452"/>
</svg>
