<svg width="32" height="22" viewBox="0 0 32 22" fill="none" xmlns="http://www.w3.org/2000/svg">
<path d="M29.6398 3.44666H1.79622C0.804196 3.44666 0 4.25085 0 5.24288V20.2038C0 21.1958 0.804196 22 1.79622 22H29.6398C30.6319 22 31.4361 21.1958 31.4361 20.2038V5.24288C31.4361 4.25085 30.6319 3.44666 29.6398 3.44666Z" fill="#EFB100"/>
<path d="M29.6398 0H1.79622C0.804196 0 0 0.804196 0 1.79622V16.7572C0 17.7492 0.804196 18.5534 1.79622 18.5534H29.6398C30.6319 18.5534 31.4361 17.7492 31.4361 16.7572V1.79622C31.4361 0.804196 30.6319 0 29.6398 0Z" fill="#FFC33A"/>
<path d="M18.9229 0H12.5117V18.5534H18.9229V0Z" fill="#FFDB87"/>
<path d="M18.9229 18.5535H12.5117V22.0001H18.9229V18.5535Z" fill="#FFC84D"/>
<path d="M15.8435 14.2769C13.9172 14.2769 12.4502 13.1365 11.8363 12.3532C11.4792 11.8974 11.5595 11.2381 12.0162 10.8809C12.4711 10.5255 13.1261 10.6041 13.4841 11.0538C13.6308 11.2355 14.9511 12.7671 17.0171 11.941C17.521 11.7411 17.7498 11.376 17.7166 11.1193C17.6651 10.7264 17.0136 10.2583 15.6724 10.0968C12.3698 9.70033 11.8721 7.82814 11.7979 7.26491C11.6311 5.98913 12.4353 4.76662 13.7993 4.2226C16.5596 3.12059 18.5732 4.60071 19.312 5.28619C19.7364 5.68088 19.7599 6.34453 19.3661 6.76805C18.9723 7.19243 18.3086 7.21688 17.8842 6.82219C17.2084 6.19259 16.0863 5.57173 14.5765 6.16989C14.0735 6.37073 13.8447 6.73574 13.8779 6.99247C13.9294 7.38454 14.5808 7.85259 15.9221 8.01414C19.2255 8.41145 19.7224 10.2836 19.7957 10.8477C19.9625 12.1235 19.1574 13.3452 17.7934 13.8883C17.1062 14.1625 16.4522 14.2769 15.8435 14.2769Z" fill="#CB8C00"/>
<path d="M15.7948 5.92699C15.2159 5.92699 14.7461 5.4572 14.7461 4.87825V3.3798C14.7461 2.80085 15.2159 2.33105 15.7948 2.33105C16.3738 2.33105 16.8436 2.80085 16.8436 3.3798V4.87825C16.8436 5.4572 16.3738 5.92699 15.7948 5.92699Z" fill="#CB8C00"/>
<path d="M15.7948 15.7814C15.2159 15.7814 14.7461 15.3116 14.7461 14.7326V13.2333C14.7461 12.6544 15.2159 12.1846 15.7948 12.1846C16.3738 12.1846 16.8436 12.6544 16.8436 13.2333V14.7326C16.8436 15.3116 16.3738 15.7814 15.7948 15.7814Z" fill="#CB8C00"/>
</svg>
