<svg width="32" height="33" viewBox="0 0 32 33" fill="none" xmlns="http://www.w3.org/2000/svg">
<path d="M29.3718 3.47992H2.62822C1.17669 3.47992 0 4.65661 0 6.10814V29.4944C0 30.9459 1.17669 32.1226 2.62822 32.1226H29.3718C30.8233 32.1226 32 30.9459 32 29.4944V6.10814C32 4.65661 30.8233 3.47992 29.3718 3.47992Z" fill="#5A81FF"/>
<path d="M17.0776 12.852L19.3106 9.57647L16.001 6.95993L12.6914 9.57647L14.7307 12.8832L12.6836 32.1227H19.1305L17.0776 12.852Z" fill="#3036D1"/>
<path d="M11.6293 10.4535L7.22461 4.03188L9.55107 0L15.9999 6.95991L12.6903 10.5314C12.3934 10.8516 11.8766 10.8137 11.6293 10.4535Z" fill="#91ABFF"/>
<path d="M20.3706 10.4535L24.7753 4.03188L22.4489 0L16 6.95991L19.3096 10.5314C19.6065 10.8516 20.1234 10.8137 20.3706 10.4535Z" fill="#91ABFF"/>
<path d="M9.55078 0H22.4485L15.9996 6.95991L9.55078 0Z" fill="#466CFB"/>
</svg>
