<svg width="40" height="40" viewBox="0 0 40 40" fill="none" xmlns="http://www.w3.org/2000/svg">
<path d="M37.9896 22.834L37.4816 21.742H26.4336V31.09H27.8016C27.7946 30.993 27.7726 30.901 27.7726 30.802C27.7726 28.441 29.6866 26.527 32.0476 26.527C34.4086 26.527 36.3226 28.441 36.3226 30.802C36.3226 30.901 36.3006 30.993 36.2936 31.09H36.7696C37.6376 31.09 38.3416 30.386 38.3416 29.518V24.424C38.3416 23.875 38.2216 23.333 37.9896 22.834Z" fill="#CBCFD2"/>
<path d="M26.4323 12.382V8.14903C26.4323 7.28103 25.7282 6.57703 24.8602 6.57703H3.22825C2.36025 6.57703 1.65625 7.28103 1.65625 8.14903V29.518C1.65625 30.386 2.36025 31.09 3.22825 31.09H4.93225C4.92525 30.993 4.90325 30.901 4.90325 30.802C4.90325 28.441 6.81725 26.527 9.17825 26.527C11.5393 26.527 13.4532 28.441 13.4532 30.802C13.4532 30.901 13.4312 30.993 13.4242 31.09H26.4313L26.4323 12.382Z" fill="#FFB72D"/>
<path d="M37.4806 21.742L33.8946 14.03C33.4266 13.025 32.4186 12.382 31.3106 12.382H26.4336V21.742H37.4816H37.4806Z" fill="#313D4C"/>
<path d="M9.18125 26.528C6.82025 26.528 4.90625 28.442 4.90625 30.803C4.90625 30.902 4.92825 30.994 4.93525 31.091C5.08625 33.315 6.91925 35.078 9.18125 35.078C11.4432 35.078 13.2762 33.315 13.4272 31.091C13.4342 30.994 13.4563 30.902 13.4563 30.803C13.4563 28.442 11.5422 26.528 9.18125 26.528ZM9.18125 32.513C8.23725 32.513 7.47125 31.747 7.47125 30.803C7.47125 29.859 8.23725 29.093 9.18125 29.093C10.1252 29.093 10.8912 29.859 10.8912 30.803C10.8912 31.747 10.1252 32.513 9.18125 32.513Z" fill="#313D4C"/>
<path d="M32.0484 26.528C29.6874 26.528 27.7734 28.442 27.7734 30.803C27.7734 30.902 27.7954 30.994 27.8024 31.091C27.9534 33.315 29.7864 35.078 32.0484 35.078C34.3104 35.078 36.1434 33.315 36.2944 31.091C36.3014 30.994 36.3234 30.902 36.3234 30.803C36.3234 28.442 34.4094 26.528 32.0484 26.528ZM32.0484 32.513C31.1044 32.513 30.3384 31.747 30.3384 30.803C30.3384 29.859 31.1044 29.093 32.0484 29.093C32.9924 29.093 33.7584 29.859 33.7584 30.803C33.7584 31.747 32.9924 32.513 32.0484 32.513Z" fill="#313D4C"/>
<path d="M10.8927 30.803C10.8927 29.859 10.1267 29.093 9.18266 29.093C8.23866 29.093 7.47266 29.859 7.47266 30.803C7.47266 31.747 8.23866 32.513 9.18266 32.513C10.1267 32.513 10.8927 31.747 10.8927 30.803Z" fill="#6B7683"/>
<path d="M33.7598 30.803C33.7598 29.859 32.9938 29.093 32.0498 29.093C31.1058 29.093 30.3398 29.859 30.3398 30.803C30.3398 31.747 31.1058 32.513 32.0498 32.513C32.9938 32.513 33.7598 31.747 33.7598 30.803Z" fill="#6B7683"/>
</svg>
