<svg width="36" height="33" viewBox="0 0 36 33" fill="none" xmlns="http://www.w3.org/2000/svg">
<path d="M35.1275 17.5637C35.1275 7.57768 26.7935 -0.462319 16.7005 0.0206809C7.88953 0.441681 0.604533 7.59768 0.037533 16.4007C-0.402467 23.2287 3.06453 29.2797 8.41753 32.5507C10.2145 33.6487 12.5675 32.6337 13.1035 30.5977L13.1695 30.3477H13.1765C13.5775 28.2157 15.4425 26.6007 17.6905 26.6007C19.9385 26.6007 21.8035 28.2157 22.2045 30.3477H22.2115C22.6895 32.4677 25.1305 33.5527 26.9655 32.3877C31.8695 29.2747 35.1275 23.8027 35.1275 17.5637Z" fill="#FFAD00"/>
<path d="M17.5636 8.91163C19.1083 8.91163 20.3606 7.65937 20.3606 6.11463C20.3606 4.56989 19.1083 3.31763 17.5636 3.31763C16.0189 3.31763 14.7666 4.56989 14.7666 6.11463C14.7666 7.65937 16.0189 8.91163 17.5636 8.91163Z" fill="#FFDA16"/>
<path d="M9.7345 12.1547C11.2792 12.1547 12.5315 10.9024 12.5315 9.35767C12.5315 7.81293 11.2792 6.56067 9.7345 6.56067C8.18976 6.56067 6.9375 7.81293 6.9375 9.35767C6.9375 10.9024 8.18976 12.1547 9.7345 12.1547Z" fill="#F77F00"/>
<path d="M6.49134 19.9836C8.03608 19.9836 9.28834 18.7314 9.28834 17.1866C9.28834 15.6419 8.03608 14.3896 6.49134 14.3896C4.9466 14.3896 3.69434 15.6419 3.69434 17.1866C3.69434 18.7314 4.9466 19.9836 6.49134 19.9836Z" fill="#EF4452"/>
<path d="M25.3927 12.1547C26.9374 12.1547 28.1897 10.9024 28.1897 9.35767C28.1897 7.81293 26.9374 6.56067 25.3927 6.56067C23.848 6.56067 22.5957 7.81293 22.5957 9.35767C22.5957 10.9024 23.848 12.1547 25.3927 12.1547Z" fill="#4FC578"/>
<path d="M28.6349 19.9836C30.1796 19.9836 31.4319 18.7314 31.4319 17.1866C31.4319 15.6419 30.1796 14.3896 28.6349 14.3896C27.0902 14.3896 25.8379 15.6419 25.8379 17.1866C25.8379 18.7314 27.0902 19.9836 28.6349 19.9836Z" fill="#1E6EF4"/>
</svg>
