<svg width="34" height="32" viewBox="0 0 34 32" fill="none" xmlns="http://www.w3.org/2000/svg">
<path d="M1.598 0C0.715 0 0 0.716 0 1.598V23.499C0 24.382 0.716 25.097 1.598 25.097H2.529L27.627 0H1.598Z" fill="#333D4B"/>
<path d="M32.4013 0H27.6273L2.5293 25.098H32.4013C33.2843 25.098 33.9993 24.383 33.9993 23.5V1.599C33.9993 0.716 33.2843 0 32.4013 0Z" fill="#333D4B"/>
<path d="M21.7828 25.491V23.822H12.2188V25.491C12.2188 27.119 11.3888 28.635 10.0168 29.512L8.8358 30.267C8.3818 30.558 8.5868 31.262 9.1268 31.262H24.8748C25.4138 31.262 25.6198 30.558 25.1658 30.267L23.9848 29.512C22.6128 28.635 21.7828 27.119 21.7828 25.491Z" fill="#8A94A0"/>
<path d="M24.8289 30.087H9.17294C8.84875 30.087 8.58594 30.3498 8.58594 30.674C8.58594 30.9982 8.84875 31.261 9.17294 31.261H24.8289C25.1531 31.261 25.4159 30.9982 25.4159 30.674C25.4159 30.3498 25.1531 30.087 24.8289 30.087Z" fill="#AFB7C0"/>
<path d="M1.598 25.098H32.401C33.284 25.098 33.999 24.382 33.999 23.5V20.762H0V23.5C0 24.383 0.715 25.098 1.598 25.098Z" fill="#AFB7C0"/>
</svg>
