<svg width="32" height="22" viewBox="0 0 32 22" fill="none" xmlns="http://www.w3.org/2000/svg">
<path d="M29.6398 3.44727H1.79622C0.804196 3.44727 0 4.25146 0 5.24349V20.2044C0 21.1965 0.804196 22.0007 1.79622 22.0007H29.6398C30.6319 22.0007 31.4361 21.1965 31.4361 20.2044V5.24349C31.4361 4.25146 30.6319 3.44727 29.6398 3.44727Z" fill="#EFB100"/>
<path d="M29.6398 0H1.79622C0.804196 0 0 0.804196 0 1.79622V16.7572C0 17.7492 0.804196 18.5534 1.79622 18.5534H29.6398C30.6319 18.5534 31.4361 17.7492 31.4361 16.7572V1.79622C31.4361 0.804196 30.6319 0 29.6398 0Z" fill="#FFC33A"/>
<path d="M18.9229 0H12.5117V18.5534H18.9229V0Z" fill="#FFDB87"/>
<path d="M18.9229 18.5527H12.5117V21.9993H18.9229V18.5527Z" fill="#FFC84D"/>
</svg>
