<svg width="29" height="31" viewBox="0 0 29 31" fill="none" xmlns="http://www.w3.org/2000/svg">
<path d="M25.0642 5.60742H16.2178V30.6721H25.0642C26.6929 30.6721 28.0128 29.3522 28.0128 27.7236V8.55595C28.0128 6.92732 26.6929 5.60742 25.0642 5.60742Z" fill="#EF4452"/>
<path d="M11.795 5.60742H2.94853C1.31989 5.60742 0 6.92732 0 8.55595V27.7236C0 29.3522 1.31989 30.6721 2.94853 30.6721H11.795V5.60742Z" fill="#EF4452"/>
<path d="M22.3752 1.47396V5.60526H16.2181V30.6762H11.7948V5.60526H5.6377V1.47396C5.6377 0.430075 6.70812 -0.286489 7.67238 0.111602L14.0065 2.71246L20.3405 0.111602C21.3048 -0.286489 22.3752 0.430075 22.3752 1.47396Z" fill="#FFCD00"/>
</svg>
