<svg width="36" height="36" viewBox="0 0 36 36" fill="none" xmlns="http://www.w3.org/2000/svg">
<path d="M19.6584 15.1294L27.0024 2.41422C18.3912 -2.55583 7.38032 0.394111 2.4082 9.00119L15.1275 16.3421C16.0429 14.7561 18.0713 14.213 19.6573 15.1284L19.6584 15.1294Z" fill="#90BDF8"/>
<path d="M16.342 20.8709L8.99805 33.5861C17.6092 38.5561 28.6201 35.6062 33.5912 26.9991L20.8719 19.6582C19.9564 21.2443 17.9281 21.7863 16.342 20.8709Z" fill="#90BDF8"/>
<path d="M15.1276 16.3431L2.40825 9.0022C-0.93461 14.79 -0.681582 21.6557 2.45042 27.0485L15.145 19.6613C14.568 18.6677 14.5114 17.4097 15.1276 16.3431Z" fill="#90BDF8"/>
<path d="M8.99803 33.5861L16.342 20.8709C15.8226 20.5706 15.4276 20.1447 15.1458 19.6603L2.45117 27.0475C3.97757 29.6744 6.17769 31.9579 8.99803 33.5861Z" fill="#C8E1FF"/>
<path d="M33.5481 8.95288L20.8535 16.3401C21.4305 17.3327 21.4871 18.5916 20.871 19.6582L33.5903 26.9992C36.9332 21.2114 36.6812 14.3457 33.5481 8.95288Z" fill="#90BDF8"/>
<path d="M27.0012 2.41418L19.6572 15.1294C20.1767 15.4297 20.5716 15.8556 20.8535 16.34L33.5481 8.95281C32.0217 6.32584 29.8216 4.04241 27.0012 2.41418Z" fill="#C8E1FF"/>
<path d="M20.7603 13.3592C18.1765 11.8678 14.8727 12.7544 13.3823 15.3351C11.8919 17.9158 12.7755 21.2195 15.3593 22.7099C17.942 24.2003 21.2468 23.3147 22.7372 20.7341C24.2276 18.1534 23.343 14.8496 20.7603 13.3592ZM16.9793 19.905C15.9466 19.3095 15.5917 17.9888 16.1883 16.9551C16.7849 15.9214 18.1066 15.5686 19.1393 16.1651C20.1719 16.7617 20.5268 18.0814 19.9302 19.1151C19.3337 20.1488 18.0119 20.5016 16.9793 19.905Z" fill="#495B73"/>
</svg>
