<svg width="34" height="35" viewBox="0 0 34 35"  fill="#D5D5D5" xmlns="http://www.w3.org/2000/svg">
<path d="M18 33.6115C17.3191 34.2989 16.5106 34.6426 15.5745 34.6426C14.6383 34.6426 13.8298 34.2989 13.1489 33.6115L0.978723 21.3249C0.326241 20.6662 0 19.8571 0 18.8976C0 17.9382 0.326241 17.1291 0.978723 16.4704L15.9574 1.30546C16.2695 0.990417 16.6383 0.739816 17.0638 0.553655C17.4894 0.367494 17.9433 0.274414 18.4255 0.274414H30.5957C31.5319 0.274414 32.3333 0.610935 33 1.28398C33.6667 1.95702 34 2.7661 34 3.71123V15.9978C34 16.4847 33.9078 16.943 33.7234 17.3726C33.539 17.8022 33.2908 18.1745 32.9787 18.4895L18 33.6115ZM26.3404 10.5849C27.0496 10.5849 27.6525 10.3343 28.1489 9.83305C28.6454 9.33185 28.8936 8.72325 28.8936 8.00724C28.8936 7.29124 28.6454 6.68264 28.1489 6.18144C27.6525 5.68024 27.0496 5.42963 26.3404 5.42963C25.6312 5.42963 25.0284 5.68024 24.5319 6.18144C24.0355 6.68264 23.7872 7.29124 23.7872 8.00724C23.7872 8.72325 24.0355 9.33185 24.5319 9.83305C25.0284 10.3343 25.6312 10.5849 26.3404 10.5849Z" fill="#D5D5D5" />
</svg>
