<svg width="33" height="37" viewBox="0 0 33 37" fill="black" xmlns="http://www.w3.org/2000/svg">
  <path d="M14.6667 32.2363V19.5637L3.66667 13.135V25.8075L14.6667 32.2363ZM18.3333 32.2363L29.3333 25.8075V13.135L18.3333 19.5637V32.2363ZM14.6667 36.4912L1.83333 29.045C1.25278 28.7058 0.802083 28.2588 0.48125 27.7038C0.160417 27.1488 0 26.5321 0 25.8538V11.1462C0 10.4679 0.160417 9.85125 0.48125 9.29625C0.802083 8.74125 1.25278 8.29417 1.83333 7.955L14.6667 0.50875C15.2472 0.169583 15.8583 0 16.5 0C17.1417 0 17.7528 0.169583 18.3333 0.50875L31.1667 7.955C31.7472 8.29417 32.1979 8.74125 32.5187 9.29625C32.8396 9.85125 33 10.4679 33 11.1462V25.8538C33 26.5321 32.8396 27.1488 32.5187 27.7038C32.1979 28.2588 31.7472 28.7058 31.1667 29.045L18.3333 36.4912C17.7528 36.8304 17.1417 37 16.5 37C15.8583 37 15.2472 36.8304 14.6667 36.4912ZM23.8333 12.0712L27.3625 10.0363L16.5 3.7L12.925 5.78125L23.8333 12.0712ZM16.5 16.3725L20.075 14.2913L9.2125 7.955L5.6375 10.0363L16.5 16.3725Z" fill="black"/>
</svg>
