<svg width="35" height="35" viewBox="0 0 35 35" fill="none" xmlns="http://www.w3.org/2000/svg">
<path d="M17.5 17.5C15.0938 17.5 13.0339 16.6432 11.3203 14.9297C9.60677 13.2161 8.75 11.1562 8.75 8.75C8.75 6.34375 9.60677 4.28385 11.3203 2.57031C13.0339 0.856771 15.0938 0 17.5 0C19.9062 0 21.9661 0.856771 23.6797 2.57031C25.3932 4.28385 26.25 6.34375 26.25 8.75C26.25 11.1562 25.3932 13.2161 23.6797 14.9297C21.9661 16.6432 19.9062 17.5 17.5 17.5ZM30.625 35H4.375C3.17188 35 2.14229 34.572 1.28625 33.7159C0.42875 32.8584 0 31.8281 0 30.625V28.875C0 27.6354 0.319375 26.4957 0.958125 25.4559C1.59542 24.4176 2.44271 23.625 3.5 23.0781C5.76042 21.9479 8.05729 21.0999 10.3906 20.5341C12.724 19.9697 15.0938 19.6875 17.5 19.6875C19.9062 19.6875 22.276 19.9697 24.6094 20.5341C26.9427 21.0999 29.2396 21.9479 31.5 23.0781C32.5573 23.625 33.4046 24.4176 34.0419 25.4559C34.6806 26.4957 35 27.6354 35 28.875V30.625C35 31.8281 34.572 32.8584 33.7159 33.7159C32.8584 34.572 31.8281 35 30.625 35ZM4.375 30.625H30.625V28.875C30.625 28.474 30.5251 28.1094 30.3253 27.7813C30.1241 27.4531 29.8594 27.1979 29.5312 27.0156C27.5625 26.0312 25.5755 25.2926 23.5703 24.7997C21.5651 24.3082 19.5417 24.0625 17.5 24.0625C15.4583 24.0625 13.4349 24.3082 11.4297 24.7997C9.42448 25.2926 7.4375 26.0312 5.46875 27.0156C5.14062 27.1979 4.87667 27.4531 4.67688 27.7813C4.47563 28.1094 4.375 28.474 4.375 28.875V30.625ZM17.5 13.125C18.7031 13.125 19.7334 12.6962 20.5909 11.8387C21.447 10.9827 21.875 9.95312 21.875 8.75C21.875 7.54688 21.447 6.51729 20.5909 5.66125C19.7334 4.80375 18.7031 4.375 17.5 4.375C16.2969 4.375 15.2673 4.80375 14.4113 5.66125C13.5538 6.51729 13.125 7.54688 13.125 8.75C13.125 9.95312 13.5538 10.9827 14.4113 11.8387C15.2673 12.6962 16.2969 13.125 17.5 13.125Z" fill="#D5D5D5"/>
</svg>
