<svg width="33" height="33" viewBox="0 0 33 33" fill="none" xmlns="http://www.w3.org/2000/svg">
<path fill-rule="evenodd" clip-rule="evenodd" d="M32.279 11.064H29.154L28.543 9.74098C27.803 8.13898 26.2 7.11298 24.435 7.11298H7.844C6.079 7.11298 4.476 8.13898 3.736 9.74098L3.125 11.064H0V29.914H0.016C0.074 31.579 1.428 33 3.201 33H29.078C30.85 33 32.205 31.579 32.263 29.914H32.279V11.064Z" fill="#FFA300"/>
<path fill-rule="evenodd" clip-rule="evenodd" d="M29.0766 14.494H3.2006C1.1106 14.494 -0.418404 12.522 0.102596 10.498L3.7356 2.628C4.4756 1.026 6.0786 0 7.8436 0H24.4356C26.2006 0 27.8036 1.026 28.5436 2.628L32.1766 10.498C32.6976 12.522 31.1686 14.494 29.0786 14.494H29.0766Z" fill="#FFC33A"/>
<path fill-rule="evenodd" clip-rule="evenodd" d="M18.989 14.494H13.293L13.678 0H18.604L18.989 14.494Z" fill="#FFE3A0"/>
<path d="M19.024 14.494H13.293V24.023H19.024V14.494Z" fill="#FFD06C"/>
</svg>
