<svg width="23" height="23" viewBox="0 0 23 23" fill="none" xmlns="http://www.w3.org/2000/svg">
<path d="M16.8649 14.8325H15.7991L15.4213 14.4684C17.0403 12.5808 17.8767 10.0055 17.418 7.26835C16.7839 3.51999 13.654 0.526693 9.87642 0.0682601C4.16963 -0.632872 -0.633243 4.16719 0.0683001 9.87063C0.527002 13.646 3.52205 16.7741 7.27261 17.4078C10.0113 17.8662 12.5882 17.0303 14.4769 15.4123L14.8412 15.7898V16.855L20.575 22.5854C21.1281 23.1382 22.032 23.1382 22.5851 22.5854C23.1383 22.0326 23.1383 21.1292 22.5851 20.5764L16.8649 14.8325ZM8.77014 14.8325C5.41082 14.8325 2.69909 12.1223 2.69909 8.76499C2.69909 5.40765 5.41082 2.69751 8.77014 2.69751C12.1295 2.69751 14.8412 5.40765 14.8412 8.76499C14.8412 12.1223 12.1295 14.8325 8.77014 14.8325Z" fill="black"/>
</svg>
