<svg width="29" height="36" viewBox="0 0 29 36" fill="none" xmlns="http://www.w3.org/2000/svg">
<path d="M7.50396 21.7856L5.62208 32.89C5.48839 33.6769 6.02213 34.4229 6.80999 34.5504L13.8793 35.6986C14.6937 35.8312 15.4519 35.2526 15.5407 34.4331L16.055 29.6631L6.71916 26.4096L7.50294 21.7856H7.50396Z" fill="#D12030"/>
<path d="M27.9784 6.72127L25.7954 3.23919C24.532 1.22363 22.3215 0 19.9437 0H8.64223C6.1664 0 3.87937 1.32568 2.64962 3.47391L1.00247 6.34979C-0.461999 8.89706 -0.31198 12.0638 1.38722 14.461L7.58903 21.2905L13.1336 27.3964C13.9511 28.2965 15.0339 28.769 16.1432 28.868C17.5883 28.9955 19.0783 28.472 20.0947 27.2565L22.692 24.1551C23.4482 23.252 23.44 21.9334 22.6716 21.0404L22.5532 20.9027L15.3227 12.4659L12.8346 9.03177L7.16347 1.77676C7.95847 1.29608 8.85552 1.0236 9.79033 1.0236H18.8343C19.761 1.0236 20.655 1.28792 21.4459 1.76247L17.1566 9.03279L15.3227 12.4659L24.4269 18.4575L27.7202 14.159C29.3265 11.9689 29.4296 9.01952 27.9794 6.72229L27.9784 6.72127Z" fill="#D12030"/>
<path d="M13.1308 27.3963L7.58621 21.2904L7.50252 21.7864L6.71875 26.4104L16.0546 29.6639L16.1404 28.8669C15.031 28.7689 13.9482 28.2974 13.1308 27.3963Z" fill="#941722"/>
<path d="M21.4426 1.76142C20.6517 1.28687 19.7577 1.02255 18.831 1.02255H9.78702C8.85221 1.02255 7.95516 1.29504 7.16016 1.77571L12.8313 9.03072H17.1533L21.4426 1.76142Z" fill="#941722"/>
<path d="M22.5508 20.9026L24.4245 18.4564L15.3203 12.4658L22.5508 20.9026Z" fill="#941722"/>
</svg>
