<svg width="37" height="25" viewBox="0 0 37 25" fill="none" xmlns="http://www.w3.org/2000/svg">
<path d="M2.49059 19.65C1.40059 19.65 0.559589 18.689 0.703589 17.609L2.59759 3.43201C2.75559 2.25201 4.17459 1.73301 5.05659 2.53201C12.2566 9.05901 17.4366 2.27501 17.4366 2.27501L34.3196 14.993C36.1336 16.359 37.1356 18.548 36.9856 20.814L36.9836 20.849L2.49059 19.65Z" fill="#CCDFE3"/>
<path d="M17.4356 2.282L13.9756 0C13.9756 0 11.9206 2.723 13.4266 5.043C13.4266 5.043 15.1536 4.859 17.4356 2.282Z" fill="#4E7698"/>
<path d="M18.6173 10.123C19.3703 10.777 20.5113 10.696 21.1653 9.94299L23.7003 7.02199L20.8553 4.85999L18.4363 7.57499C17.7823 8.32799 17.8643 9.46899 18.6173 10.123Z" fill="#4E7698"/>
<path d="M23.9366 12.734C24.6896 13.388 25.8306 13.307 26.4846 12.554L28.2976 10.465L25.4056 8.28601L23.7566 10.186C23.1026 10.939 23.1836 12.08 23.9366 12.734Z" fill="#4E7698"/>
<path d="M1.96673 24.346H33.5757C35.5357 24.346 37.0297 22.719 36.9827 20.849L0.739733 17.461L0.0177326 22.119C-0.140267 23.298 0.776733 24.346 1.96673 24.346Z" fill="#4E7698"/>
<path d="M1.59323 11.072C1.59323 11.072 7.19123 13.137 7.91023 18.132L0.740234 17.462L1.59423 11.073L1.59323 11.072Z" fill="#7B9FC2"/>
</svg>
