<svg width="35" height="34" viewBox="0 0 35 34" fill="none" xmlns="http://www.w3.org/2000/svg">
<path d="M19.0402 1.29979L22.1491 7.59857C22.399 8.10555 22.883 8.45754 23.443 8.53854L30.3938 9.5485C31.8027 9.7535 32.3657 11.4844 31.3457 12.4784L26.3159 17.3812C25.9109 17.7762 25.7259 18.3442 25.8219 18.9022L27.0089 25.8249C27.2499 27.2279 25.7769 28.2989 24.516 27.6359L18.2982 24.367C17.7982 24.104 17.2002 24.104 16.6992 24.367L10.4815 27.6359C9.2215 28.2989 7.74855 27.2279 7.98854 25.8249L9.1755 18.9022C9.2715 18.3452 9.0865 17.7762 8.68152 17.3812L3.65169 12.4784C2.63173 11.4844 3.19471 9.7525 4.60366 9.5485L11.5544 8.53854C12.1144 8.45754 12.5974 8.10555 12.8484 7.59857L15.9573 1.29979C16.5872 0.0228325 18.4082 0.0228325 19.0382 1.29979H19.0402Z" fill="#FFCD00"/>
<path d="M25.1579 0.903717C24.722 1.4967 24.281 3.44563 23.999 4.90758C23.861 5.62255 24.612 6.17554 25.2539 5.83055C26.5659 5.12557 28.2958 4.12561 28.7318 3.53263C29.4578 2.54566 29.2468 1.15771 28.2598 0.431733C27.2729 -0.294242 25.8839 -0.0832492 25.1579 0.903717Z" fill="#FFE63B"/>
<path d="M33.4785 18.0761C32.7805 17.8441 30.7906 18.0271 29.3127 18.2111C28.5897 18.3011 28.2967 19.1861 28.8227 19.6901C29.8986 20.72 31.3846 22.056 32.0826 22.288C33.2455 22.674 34.5005 22.044 34.8865 20.881C35.2725 19.7181 34.6425 18.4631 33.4795 18.0771L33.4785 18.0761Z" fill="#FFE63B"/>
<path d="M19.7171 31.2977C19.7211 30.5617 18.9332 28.7258 18.3022 27.3768C17.9932 26.7168 17.0612 26.7118 16.7442 27.3678C16.0973 28.7088 15.2853 30.5347 15.2813 31.2707C15.2743 32.4956 16.2613 33.4946 17.4862 33.5026C18.7112 33.5096 19.7091 32.5226 19.7171 31.2977Z" fill="#FFE63B"/>
<path d="M2.89111 22.2959C3.59208 22.0729 5.09403 20.7549 6.18199 19.738C6.71398 19.241 6.43099 18.352 5.71001 18.253C4.23406 18.052 2.24713 17.845 1.54615 18.068C0.379194 18.439 -0.266783 19.687 0.105204 20.8539C0.477191 22.0209 1.72415 22.6679 2.89111 22.2959Z" fill="#FFE63B"/>
<path d="M6.25349 3.51161C6.68248 4.10959 8.39942 5.13056 9.70337 5.85153C10.3403 6.20352 11.0983 5.66054 10.9693 4.94357C10.7043 3.47762 10.2874 1.52368 9.85837 0.925703C9.14439 -0.0692623 7.75844 -0.298254 6.76347 0.415721C5.76851 1.1297 5.53951 2.51565 6.25349 3.51061V3.51161Z" fill="#FFE63B"/>
</svg>
